<svg xmlns="http://www.w3.org/2000/svg" width="5245.43" height="2457.146" viewBox="0 0 5245.43 2457.146">
  <g id="Group_2119" data-name="Group 2119" transform="translate(-10523.905 -472.376)">
    <rect id="Rectangle_1341" data-name="Rectangle 1341" width="5242.283" height="1915.818" transform="translate(10526.717 787.186)" fill="#ffc055"/>
    <path id="Path_2214" data-name="Path 2214" d="M0,274.621C0,250.657.5,186.553,0,171.2,145.736,53.044,696.228,0,1301.418,0c229.136,0,444.443,12.5,631.449,34.435q26.535,3.476,53.911,6.687c26.156,3.425,89.254,9.54,89.254,9.54S2342.34,76.026,2618.2,75.554s561.27-26.782,561.27-26.782S3660.3,0,3938.718,0c626.744,0,1177.843,55.45,1301.414,179.822,7.421,19.951,0,75.384,0,94.8,0,151.669-582.662,274.622-1301.413,274.622-197.879,0-385.444-9.32-553.377-25.991q-46.318-4.6-90.584-9.931-16.169-2.081-32.638-4.064c-189.879-22.857-409.671-35.917-643.92-35.917-221.475,0-430.028,11.674-612.594,32.266q-46.976,5.3-91.6,11.371-19.13,2.157-38.633,4.183c-173.133,17.982-367.956,28.082-573.957,28.082C582.665,549.242,0,426.29,0,274.621Z" transform="translate(15769.335 1021.619) rotate(180)" fill="#ffc055"/>
    <path id="Path_2215" data-name="Path 2215" d="M0,197.326C0,154.763,3.1,59.372.268,5.335.192,3.87.1,2.244,0,.661c268.862-1.417,873.515,0,1302.126,0,229.26,0,444.684,8.949,631.792,24.66q26.549,2.489,53.94,4.789c26.17,2.453,89.3,6.832,89.3,6.832s266.453,18.164,542.461,17.826S3181.2,35.588,3181.2,35.588,3662.29.661,3940.859.661c324.331,0,583.937-1.488,840.741,0,3.886.505,457.441-.524,461.381,0-.7,53.186,0,137.87,0,196.665,0,108.615-582.979,196.665-1302.12,196.665-197.987,0-385.653-6.674-553.678-18.613q-46.343-3.294-90.633-7.112-16.177-1.49-32.656-2.91c-189.982-16.369-409.894-25.721-644.271-25.721-221.594,0-430.261,8.36-612.926,23.106q-47,3.794-91.647,8.143-19.14,1.545-38.654,3c-173.227,12.878-368.156,20.11-574.269,20.11C582.981,393.991,0,305.941,0,197.326Z" transform="translate(15767.335 2929.155) rotate(180)" fill="#ffc055"/>
    <path id="Path_2218" data-name="Path 2218" d="M12535.069-2968.349l-186.123-3.605-119.229-3.143-97.764-2.94-117.266-3.972-153.7-5.627-150.48-6.3-129.3-5.083-122.119-3.821-126.52-3.77-145.484-3.266-128.766-3.04-119.941-2.008-116.711-1.9-147.318-2.054-115.59-1.324-117.553-1.143-140.338-1.1h-347.01l-120.768,1.1-138.682,1.143-126.779,1.761-128.785,2.135-141.922,2.648-115.75,2.156-132.021,2.674-152.592,3.868-126.633,3.494-124.859,4.091-133.3,4.586-187.559,5.272-188.484,5.724-150.986,4.263-690.811,9.736v4.238Z" transform="translate(3229.979 5893.078)" fill="#00b4a6"/>
  </g>
</svg>
